<svg width="1280" height="800" viewBox="0 0 1280 800" fill="none" xmlns="http://www.w3.org/2000/svg">
<g clip-path="url(#clip0_0_1)">
<rect width="1280" height="800" fill="white"/>
<rect width="1512" height="982" fill="#515833"/>
<rect x="67" y="213" width="739" height="257" fill="#333B58"/>
<rect x="312" y="184" width="656" height="629" fill="#583333"/>
<path d="M0 511H452C468.569 511 482 524.431 482 541V800H0V511Z" fill="#D9D9D9" fill-opacity="0.4"/>
<rect x="67" y="597" width="349" height="81" rx="15" fill="#D9D9D9" fill-opacity="0.4"/>
<path d="M167.814 651V624.091H177.221C179.096 624.091 180.642 624.415 181.86 625.063C183.077 625.703 183.984 626.565 184.579 627.652C185.175 628.729 185.473 629.925 185.473 631.239C185.473 632.395 185.267 633.35 184.855 634.103C184.452 634.856 183.918 635.452 183.252 635.89C182.595 636.328 181.881 636.652 181.111 636.862V637.125C181.934 637.178 182.762 637.467 183.594 637.992C184.426 638.518 185.122 639.271 185.683 640.252C186.244 641.233 186.524 642.433 186.524 643.852C186.524 645.201 186.217 646.414 185.604 647.492C184.991 648.569 184.023 649.423 182.7 650.054C181.378 650.685 179.657 651 177.537 651H167.814ZM171.072 648.109H177.537C179.665 648.109 181.176 647.698 182.07 646.874C182.972 646.042 183.423 645.035 183.423 643.852C183.423 642.941 183.191 642.1 182.727 641.33C182.262 640.55 181.601 639.928 180.743 639.464C179.884 638.991 178.868 638.754 177.694 638.754H171.072V648.109ZM171.072 635.916H177.116C178.097 635.916 178.982 635.723 179.77 635.338C180.567 634.953 181.198 634.41 181.662 633.709C182.135 633.008 182.372 632.185 182.372 631.239C182.372 630.056 181.96 629.053 181.137 628.23C180.313 627.398 179.008 626.982 177.221 626.982H171.072V635.916ZM209.537 624.091H212.796V641.908C212.796 643.747 212.362 645.39 211.495 646.835C210.637 648.271 209.423 649.406 207.855 650.238C206.287 651.061 204.448 651.473 202.337 651.473C200.226 651.473 198.386 651.061 196.818 650.238C195.251 649.406 194.033 648.271 193.166 646.835C192.307 645.39 191.878 643.747 191.878 641.908V624.091H195.137V641.645C195.137 642.959 195.426 644.128 196.004 645.153C196.582 646.169 197.405 646.971 198.474 647.558C199.551 648.136 200.839 648.425 202.337 648.425C203.835 648.425 205.122 648.136 206.2 647.558C207.277 646.971 208.101 646.169 208.67 645.153C209.248 644.128 209.537 642.959 209.537 641.645V624.091ZM217.831 626.982V624.091H238.013V626.982H229.552V651H226.293V626.982H217.831ZM241.571 626.982V624.091H261.752V626.982H253.291V651H250.032V626.982H241.571ZM288.366 637.545C288.366 640.384 287.853 642.836 286.829 644.903C285.804 646.971 284.398 648.565 282.611 649.686C280.824 650.807 278.783 651.368 276.488 651.368C274.193 651.368 272.152 650.807 270.365 649.686C268.578 648.565 267.172 646.971 266.148 644.903C265.123 642.836 264.61 640.384 264.61 637.545C264.61 634.707 265.123 632.255 266.148 630.188C267.172 628.12 268.578 626.526 270.365 625.405C272.152 624.284 274.193 623.723 276.488 623.723C278.783 623.723 280.824 624.284 282.611 625.405C284.398 626.526 285.804 628.12 286.829 630.188C287.853 632.255 288.366 634.707 288.366 637.545ZM285.212 637.545C285.212 635.215 284.823 633.249 284.043 631.646C283.272 630.043 282.226 628.83 280.903 628.006C279.589 627.183 278.117 626.771 276.488 626.771C274.859 626.771 273.383 627.183 272.06 628.006C270.746 628.83 269.699 630.043 268.92 631.646C268.149 633.249 267.764 635.215 267.764 637.545C267.764 639.875 268.149 641.842 268.92 643.445C269.699 645.048 270.746 646.261 272.06 647.085C273.383 647.908 274.859 648.32 276.488 648.32C278.117 648.32 279.589 647.908 280.903 647.085C282.226 646.261 283.272 645.048 284.043 643.445C284.823 641.842 285.212 639.875 285.212 637.545ZM315.183 624.091V651H312.03L297.366 629.872H297.103V651H293.845V624.091H296.998L311.714 645.271H311.977V624.091H315.183Z" fill="black"/>
<rect x="67" y="700" width="349" height="81" rx="15" fill="#D9D9D9" fill-opacity="0.4"/>
<path d="M167.814 754V727.091H177.221C179.096 727.091 180.642 727.415 181.86 728.063C183.077 728.703 183.984 729.565 184.579 730.652C185.175 731.729 185.473 732.925 185.473 734.239C185.473 735.395 185.267 736.35 184.855 737.103C184.452 737.856 183.918 738.452 183.252 738.89C182.595 739.328 181.881 739.652 181.111 739.862V740.125C181.934 740.178 182.762 740.467 183.594 740.992C184.426 741.518 185.122 742.271 185.683 743.252C186.244 744.233 186.524 745.433 186.524 746.852C186.524 748.201 186.217 749.414 185.604 750.492C184.991 751.569 184.023 752.423 182.7 753.054C181.378 753.685 179.657 754 177.537 754H167.814ZM171.072 751.109H177.537C179.665 751.109 181.176 750.698 182.07 749.874C182.972 749.042 183.423 748.035 183.423 746.852C183.423 745.941 183.191 745.1 182.727 744.33C182.262 743.55 181.601 742.928 180.743 742.464C179.884 741.991 178.868 741.754 177.694 741.754H171.072V751.109ZM171.072 738.916H177.116C178.097 738.916 178.982 738.723 179.77 738.338C180.567 737.953 181.198 737.41 181.662 736.709C182.135 736.008 182.372 735.185 182.372 734.239C182.372 733.056 181.96 732.053 181.137 731.23C180.313 730.398 179.008 729.982 177.221 729.982H171.072V738.916ZM209.537 727.091H212.796V744.908C212.796 746.747 212.362 748.39 211.495 749.835C210.637 751.271 209.423 752.406 207.855 753.238C206.287 754.061 204.448 754.473 202.337 754.473C200.226 754.473 198.386 754.061 196.818 753.238C195.251 752.406 194.033 751.271 193.166 749.835C192.307 748.39 191.878 746.747 191.878 744.908V727.091H195.137V744.645C195.137 745.959 195.426 747.128 196.004 748.153C196.582 749.169 197.405 749.971 198.474 750.558C199.551 751.136 200.839 751.425 202.337 751.425C203.835 751.425 205.122 751.136 206.2 750.558C207.277 749.971 208.101 749.169 208.67 748.153C209.248 747.128 209.537 745.959 209.537 744.645V727.091ZM217.831 729.982V727.091H238.013V729.982H229.552V754H226.293V729.982H217.831ZM241.571 729.982V727.091H261.752V729.982H253.291V754H250.032V729.982H241.571ZM288.366 740.545C288.366 743.384 287.853 745.836 286.829 747.903C285.804 749.971 284.398 751.565 282.611 752.686C280.824 753.807 278.783 754.368 276.488 754.368C274.193 754.368 272.152 753.807 270.365 752.686C268.578 751.565 267.172 749.971 266.148 747.903C265.123 745.836 264.61 743.384 264.61 740.545C264.61 737.707 265.123 735.255 266.148 733.188C267.172 731.12 268.578 729.526 270.365 728.405C272.152 727.284 274.193 726.723 276.488 726.723C278.783 726.723 280.824 727.284 282.611 728.405C284.398 729.526 285.804 731.12 286.829 733.188C287.853 735.255 288.366 737.707 288.366 740.545ZM285.212 740.545C285.212 738.215 284.823 736.249 284.043 734.646C283.272 733.043 282.226 731.83 280.903 731.006C279.589 730.183 278.117 729.771 276.488 729.771C274.859 729.771 273.383 730.183 272.06 731.006C270.746 731.83 269.699 733.043 268.92 734.646C268.149 736.249 267.764 738.215 267.764 740.545C267.764 742.875 268.149 744.842 268.92 746.445C269.699 748.048 270.746 749.261 272.06 750.085C273.383 750.908 274.859 751.32 276.488 751.32C278.117 751.32 279.589 750.908 280.903 750.085C282.226 749.261 283.272 748.048 284.043 746.445C284.823 744.842 285.212 742.875 285.212 740.545ZM315.183 727.091V754H312.03L297.366 732.872H297.103V754H293.845V727.091H296.998L311.714 748.271H311.977V727.091H315.183Z" fill="black"/>
<path d="M161.364 567V540.091H170.456C172.567 540.091 174.293 540.472 175.633 541.234C176.982 541.987 177.981 543.008 178.629 544.295C179.277 545.583 179.601 547.02 179.601 548.605C179.601 550.191 179.277 551.632 178.629 552.928C177.989 554.224 177 555.258 175.659 556.029C174.319 556.791 172.602 557.172 170.509 557.172H163.992V554.281H170.404C171.849 554.281 173.01 554.032 173.886 553.532C174.762 553.033 175.397 552.359 175.791 551.509C176.194 550.65 176.395 549.683 176.395 548.605C176.395 547.528 176.194 546.564 175.791 545.714C175.397 544.865 174.757 544.199 173.873 543.717C172.988 543.227 171.814 542.982 170.351 542.982H164.623V567H161.364ZM183.208 567H179.792L189.672 540.091H193.036L202.917 567H199.501L191.459 544.348H191.249L183.208 567ZM184.469 556.489H198.239V559.379H184.469V556.489ZM207.108 567V540.091H216.2C218.303 540.091 220.028 540.45 221.377 541.168C222.726 541.878 223.725 542.855 224.373 544.098C225.021 545.342 225.345 546.757 225.345 548.342C225.345 549.928 225.021 551.334 224.373 552.56C223.725 553.786 222.731 554.75 221.39 555.451C220.05 556.143 218.338 556.489 216.253 556.489H208.895V553.545H216.148C217.584 553.545 218.741 553.335 219.617 552.915C220.501 552.494 221.141 551.899 221.535 551.128C221.938 550.348 222.139 549.42 222.139 548.342C222.139 547.265 221.938 546.323 221.535 545.517C221.132 544.712 220.488 544.09 219.604 543.652C218.719 543.205 217.549 542.982 216.095 542.982H210.367V567H207.108ZM219.774 554.912L226.396 567H222.612L216.095 554.912H219.774ZM229.304 542.982V540.091H249.485V542.982H241.024V567H237.765V542.982H229.304ZM275.852 540.091V567H272.699L258.036 545.872H257.773V567H254.514V540.091H257.668L272.384 561.271H272.646V540.091H275.852ZM282.373 567V540.091H298.613V542.982H285.631V552.074H297.772V554.964H285.631V564.109H298.823V567H282.373ZM304.486 567V540.091H313.578C315.681 540.091 317.406 540.45 318.755 541.168C320.104 541.878 321.103 542.855 321.751 544.098C322.399 545.342 322.723 546.757 322.723 548.342C322.723 549.928 322.399 551.334 321.751 552.56C321.103 553.786 320.109 554.75 318.768 555.451C317.428 556.143 315.716 556.489 313.631 556.489H306.273V553.545H313.526C314.962 553.545 316.119 553.335 316.995 552.915C317.879 552.494 318.519 551.899 318.913 551.128C319.316 550.348 319.517 549.42 319.517 548.342C319.517 547.265 319.316 546.323 318.913 545.517C318.51 544.712 317.866 544.09 316.981 543.652C316.097 543.205 314.927 542.982 313.473 542.982H307.745V567H304.486ZM317.152 554.912L323.774 567H319.99L313.473 554.912H317.152Z" fill="black"/>
<rect x="1004" y="39" width="576" height="721" rx="90" fill="#D9D9D9" fill-opacity="0.4"/>
<rect x="1022" y="323" width="162" height="38" rx="19" fill="#D9D9D9" fill-opacity="0.4"/>
<path d="M1063.17 350V335.455H1068.25C1069.27 335.455 1070.1 335.63 1070.76 335.98C1071.42 336.326 1071.91 336.792 1072.23 337.379C1072.55 337.962 1072.72 338.608 1072.72 339.318C1072.72 339.943 1072.6 340.459 1072.38 340.866C1072.16 341.274 1071.87 341.596 1071.51 341.832C1071.16 342.069 1070.77 342.244 1070.36 342.358V342.5C1070.8 342.528 1071.25 342.685 1071.7 342.969C1072.15 343.253 1072.53 343.66 1072.83 344.19C1073.13 344.721 1073.28 345.369 1073.28 346.136C1073.28 346.866 1073.12 347.521 1072.79 348.104C1072.45 348.686 1071.93 349.148 1071.22 349.489C1070.5 349.83 1069.57 350 1068.43 350H1063.17ZM1064.93 348.438H1068.43C1069.58 348.438 1070.39 348.215 1070.88 347.77C1071.36 347.32 1071.61 346.776 1071.61 346.136C1071.61 345.644 1071.48 345.189 1071.23 344.773C1070.98 344.351 1070.62 344.015 1070.16 343.764C1069.69 343.509 1069.14 343.381 1068.51 343.381H1064.93V348.438ZM1064.93 341.847H1068.2C1068.73 341.847 1069.21 341.742 1069.63 341.534C1070.06 341.326 1070.4 341.032 1070.66 340.653C1070.91 340.275 1071.04 339.83 1071.04 339.318C1071.04 338.679 1070.82 338.137 1070.37 337.692C1069.93 337.242 1069.22 337.017 1068.25 337.017H1064.93V341.847ZM1085.72 335.455H1087.48V345.085C1087.48 346.08 1087.25 346.967 1086.78 347.749C1086.32 348.525 1085.66 349.138 1084.81 349.588C1083.97 350.033 1082.97 350.256 1081.83 350.256C1080.69 350.256 1079.7 350.033 1078.85 349.588C1078 349.138 1077.34 348.525 1076.87 347.749C1076.41 346.967 1076.18 346.08 1076.18 345.085V335.455H1077.94V344.943C1077.94 345.653 1078.09 346.286 1078.41 346.839C1078.72 347.389 1079.17 347.822 1079.74 348.139C1080.33 348.452 1081.02 348.608 1081.83 348.608C1082.64 348.608 1083.34 348.452 1083.92 348.139C1084.5 347.822 1084.95 347.389 1085.25 346.839C1085.57 346.286 1085.72 345.653 1085.72 344.943V335.455ZM1090.21 337.017V335.455H1101.12V337.017H1096.54V350H1094.78V337.017H1090.21ZM1103.04 337.017V335.455H1113.95V337.017H1109.37V350H1107.61V337.017H1103.04ZM1128.33 342.727C1128.33 344.261 1128.06 345.587 1127.5 346.705C1126.95 347.822 1126.19 348.684 1125.22 349.29C1124.26 349.896 1123.15 350.199 1121.91 350.199C1120.67 350.199 1119.57 349.896 1118.6 349.29C1117.64 348.684 1116.88 347.822 1116.32 346.705C1115.77 345.587 1115.49 344.261 1115.49 342.727C1115.49 341.193 1115.77 339.867 1116.32 338.75C1116.88 337.633 1117.64 336.771 1118.6 336.165C1119.57 335.559 1120.67 335.256 1121.91 335.256C1123.15 335.256 1124.26 335.559 1125.22 336.165C1126.19 336.771 1126.95 337.633 1127.5 338.75C1128.06 339.867 1128.33 341.193 1128.33 342.727ZM1126.63 342.727C1126.63 341.468 1126.42 340.405 1126 339.538C1125.58 338.672 1125.01 338.016 1124.3 337.571C1123.59 337.126 1122.79 336.903 1121.91 336.903C1121.03 336.903 1120.23 337.126 1119.52 337.571C1118.81 338.016 1118.24 338.672 1117.82 339.538C1117.4 340.405 1117.2 341.468 1117.2 342.727C1117.2 343.987 1117.4 345.05 1117.82 345.916C1118.24 346.783 1118.81 347.438 1119.52 347.884C1120.23 348.329 1121.03 348.551 1121.91 348.551C1122.79 348.551 1123.59 348.329 1124.3 347.884C1125.01 347.438 1125.58 346.783 1126 345.916C1126.42 345.05 1126.63 343.987 1126.63 342.727ZM1142.83 335.455V350H1141.12L1133.2 338.58H1133.06V350H1131.29V335.455H1133L1140.95 346.903H1141.1V335.455H1142.83Z" fill="black"/>
<g filter="url(#filter0_i_0_1)">
<path d="M1022 470C1022 420.294 1062.29 380 1112 380H1194V553H1022V470Z" fill="#D9D9D9" fill-opacity="0.4"/>
</g>
<g filter="url(#filter1_i_0_1)">
<path d="M1022 570H1194V743H1112C1062.29 743 1022 702.706 1022 653V570Z" fill="#D9D9D9" fill-opacity="0.4"/>
</g>
<g filter="url(#filter2_i_0_1)">
<path d="M1212 380H1295C1344.71 380 1385 420.294 1385 470V553H1212V380Z" fill="#D9D9D9" fill-opacity="0.4"/>
</g>
<g filter="url(#filter3_i_0_1)">
<path d="M1212 570H1385V653C1385 702.706 1344.71 743 1295 743H1212V570Z" fill="#D9D9D9" fill-opacity="0.4"/>
</g>
<path d="M1050.64 122V100.182H1058.27C1059.79 100.182 1061.04 100.445 1062.03 100.97C1063.02 101.489 1063.75 102.188 1064.24 103.069C1064.72 103.942 1064.96 104.912 1064.96 105.977C1064.96 106.915 1064.79 107.689 1064.46 108.3C1064.13 108.911 1063.7 109.393 1063.16 109.749C1062.63 110.104 1062.05 110.366 1061.42 110.537V110.75C1062.09 110.793 1062.76 111.027 1063.44 111.453C1064.11 111.879 1064.68 112.49 1065.13 113.286C1065.59 114.081 1065.81 115.054 1065.81 116.205C1065.81 117.298 1065.56 118.282 1065.07 119.156C1064.57 120.029 1063.78 120.722 1062.71 121.233C1061.64 121.744 1060.24 122 1058.53 122H1050.64ZM1053.28 119.656H1058.53C1060.25 119.656 1061.48 119.322 1062.2 118.655C1062.93 117.98 1063.3 117.163 1063.3 116.205C1063.3 115.466 1063.11 114.784 1062.73 114.159C1062.36 113.527 1061.82 113.023 1061.12 112.646C1060.43 112.263 1059.61 112.071 1058.65 112.071H1053.28V119.656ZM1053.28 109.77H1058.18C1058.98 109.77 1059.7 109.614 1060.34 109.301C1060.98 108.989 1061.49 108.548 1061.87 107.98C1062.25 107.412 1062.45 106.744 1062.45 105.977C1062.45 105.018 1062.11 104.205 1061.44 103.538C1060.78 102.863 1059.72 102.526 1058.27 102.526H1053.28V109.77ZM1070.15 122V100.182H1083.32V102.526H1072.8V109.898H1082.64V112.241H1072.8V119.656H1083.49V122H1070.15ZM1090.73 100.182V122H1088.08V100.182H1090.73ZM1107.95 105.636C1107.83 104.557 1107.31 103.719 1106.4 103.122C1105.49 102.526 1104.38 102.227 1103.05 102.227C1102.09 102.227 1101.24 102.384 1100.52 102.696C1099.8 103.009 1099.24 103.438 1098.84 103.985C1098.44 104.532 1098.24 105.153 1098.24 105.849C1098.24 106.432 1098.38 106.933 1098.65 107.352C1098.94 107.763 1099.3 108.108 1099.74 108.385C1100.18 108.655 1100.64 108.879 1101.13 109.056C1101.61 109.227 1102.05 109.365 1102.46 109.472L1104.67 110.068C1105.24 110.217 1105.87 110.423 1106.57 110.686C1107.27 110.949 1107.94 111.308 1108.58 111.762C1109.23 112.21 1109.76 112.785 1110.18 113.488C1110.6 114.191 1110.81 115.054 1110.81 116.077C1110.81 117.256 1110.5 118.321 1109.88 119.273C1109.27 120.224 1108.38 120.981 1107.2 121.542C1106.03 122.103 1104.6 122.384 1102.93 122.384C1101.36 122.384 1100.01 122.131 1098.87 121.627C1097.73 121.123 1096.84 120.42 1096.18 119.518C1095.54 118.616 1095.17 117.568 1095.09 116.375H1097.81C1097.88 117.199 1098.16 117.881 1098.64 118.42C1099.13 118.953 1099.75 119.351 1100.5 119.614C1101.25 119.869 1102.06 119.997 1102.93 119.997C1103.93 119.997 1104.84 119.834 1105.64 119.507C1106.45 119.173 1107.08 118.712 1107.55 118.122C1108.02 117.526 1108.25 116.83 1108.25 116.034C1108.25 115.31 1108.05 114.72 1107.65 114.266C1107.24 113.811 1106.71 113.442 1106.05 113.158C1105.39 112.874 1104.67 112.625 1103.91 112.412L1101.22 111.645C1099.52 111.155 1098.17 110.455 1097.17 109.546C1096.18 108.637 1095.68 107.447 1095.68 105.977C1095.68 104.756 1096.01 103.69 1096.67 102.781C1097.34 101.865 1098.24 101.155 1099.36 100.651C1100.49 100.139 1101.75 99.8835 1103.14 99.8835C1104.55 99.8835 1105.8 100.136 1106.89 100.64C1107.98 101.137 1108.85 101.819 1109.49 102.685C1110.14 103.552 1110.48 104.536 1110.51 105.636H1107.95ZM1115.15 122V100.182H1122.53C1124.24 100.182 1125.64 100.491 1126.72 101.109C1127.82 101.719 1128.63 102.547 1129.15 103.591C1129.68 104.635 1129.94 105.8 1129.94 107.085C1129.94 108.371 1129.68 109.539 1129.15 110.59C1128.63 111.641 1127.83 112.479 1126.74 113.104C1125.66 113.722 1124.27 114.031 1122.57 114.031H1117.28V111.688H1122.48C1123.66 111.688 1124.6 111.485 1125.31 111.08C1126.02 110.675 1126.53 110.129 1126.85 109.44C1127.18 108.744 1127.34 107.959 1127.34 107.085C1127.34 106.212 1127.18 105.43 1126.85 104.741C1126.53 104.053 1126.01 103.513 1125.3 103.122C1124.58 102.724 1123.63 102.526 1122.44 102.526H1117.8V122H1115.15ZM1136.84 100.182V122H1134.2V100.182H1136.84ZM1142.14 122V100.182H1155.3V102.526H1144.78V109.898H1154.62V112.241H1144.78V119.656H1155.47V122H1142.14ZM1160.07 122V100.182H1162.71V119.656H1172.85V122H1160.07ZM1172.85 102.526V100.182H1189.21V102.526H1182.35V122H1179.71V102.526H1172.85ZM1193.29 122V100.182H1206.46V102.526H1195.93V109.898H1205.77V112.241H1195.93V119.656H1206.63V122H1193.29ZM1212.5 100.182L1218.12 109.259H1218.29L1223.92 100.182H1227.03L1220.17 111.091L1227.03 122H1223.92L1218.29 113.094H1218.12L1212.5 122H1209.39L1216.42 111.091L1209.39 100.182H1212.5ZM1229.27 102.526V100.182H1245.64V102.526H1238.78V122H1236.13V102.526H1229.27Z" fill="black"/>
<path d="M1057.82 135.364V147H1056.41V135.364H1057.82ZM1069.87 135.364V147H1068.51L1062.17 137.864H1062.05V147H1060.64V135.364H1062.01L1068.37 144.523H1068.48V135.364H1069.87ZM1072.69 147V135.364H1079.67V136.614H1074.1V140.545H1079.14V141.795H1074.1V147H1072.69ZM1091.9 141.182C1091.9 142.409 1091.68 143.47 1091.23 144.364C1090.79 145.258 1090.18 145.947 1089.41 146.432C1088.64 146.917 1087.76 147.159 1086.76 147.159C1085.77 147.159 1084.89 146.917 1084.12 146.432C1083.34 145.947 1082.73 145.258 1082.29 144.364C1081.85 143.47 1081.63 142.409 1081.63 141.182C1081.63 139.955 1081.85 138.894 1082.29 138C1082.73 137.106 1083.34 136.417 1084.12 135.932C1084.89 135.447 1085.77 135.205 1086.76 135.205C1087.76 135.205 1088.64 135.447 1089.41 135.932C1090.18 136.417 1090.79 137.106 1091.23 138C1091.68 138.894 1091.9 139.955 1091.9 141.182ZM1090.54 141.182C1090.54 140.174 1090.37 139.324 1090.03 138.631C1089.7 137.938 1089.24 137.413 1088.67 137.057C1088.1 136.701 1087.47 136.523 1086.76 136.523C1086.06 136.523 1085.42 136.701 1084.85 137.057C1084.28 137.413 1083.83 137.938 1083.49 138.631C1083.16 139.324 1082.99 140.174 1082.99 141.182C1082.99 142.189 1083.16 143.04 1083.49 143.733C1083.83 144.426 1084.28 144.951 1084.85 145.307C1085.42 145.663 1086.06 145.841 1086.76 145.841C1087.47 145.841 1088.1 145.663 1088.67 145.307C1089.24 144.951 1089.7 144.426 1090.03 143.733C1090.37 143.04 1090.54 142.189 1090.54 141.182ZM1093.15 136.614V135.364H1101.88V136.614H1098.22V147H1096.81V136.614H1093.15ZM1104.05 147V135.364H1111.07V136.614H1105.46V140.545H1110.71V141.795H1105.46V145.75H1111.16V147H1104.05ZM1114.29 135.364L1117.29 140.205H1117.38L1120.38 135.364H1122.04L1118.38 141.182L1122.04 147H1120.38L1117.38 142.25H1117.29L1114.29 147H1112.63L1116.38 141.182L1112.63 135.364H1114.29ZM1123.24 136.614V135.364H1131.97V136.614H1128.31V147H1126.9V136.614H1123.24ZM1143.46 140.557V141.807H1138.37V140.557H1143.46ZM1151.91 135.364V147H1150.5V135.364H1151.91ZM1163.96 135.364V147H1162.6L1156.26 137.864H1156.15V147H1154.74V135.364H1156.1L1162.46 144.523H1162.58V135.364H1163.96ZM1166.78 147V135.364H1173.76V136.614H1168.19V140.545H1173.24V141.795H1168.19V147H1166.78ZM1185.99 141.182C1185.99 142.409 1185.77 143.47 1185.33 144.364C1184.88 145.258 1184.28 145.947 1183.5 146.432C1182.73 146.917 1181.85 147.159 1180.86 147.159C1179.86 147.159 1178.98 146.917 1178.21 146.432C1177.44 145.947 1176.83 145.258 1176.38 144.364C1175.94 143.47 1175.72 142.409 1175.72 141.182C1175.72 139.955 1175.94 138.894 1176.38 138C1176.83 137.106 1177.44 136.417 1178.21 135.932C1178.98 135.447 1179.86 135.205 1180.86 135.205C1181.85 135.205 1182.73 135.447 1183.5 135.932C1184.28 136.417 1184.88 137.106 1185.33 138C1185.77 138.894 1185.99 139.955 1185.99 141.182ZM1184.63 141.182C1184.63 140.174 1184.46 139.324 1184.12 138.631C1183.79 137.938 1183.34 137.413 1182.77 137.057C1182.2 136.701 1181.56 136.523 1180.86 136.523C1180.15 136.523 1179.51 136.701 1178.94 137.057C1178.37 137.413 1177.92 137.938 1177.58 138.631C1177.25 139.324 1177.08 140.174 1177.08 141.182C1177.08 142.189 1177.25 143.04 1177.58 143.733C1177.92 144.426 1178.37 144.951 1178.94 145.307C1179.51 145.663 1180.15 145.841 1180.86 145.841C1181.56 145.841 1182.2 145.663 1182.77 145.307C1183.34 144.951 1183.79 144.426 1184.12 143.733C1184.46 143.04 1184.63 142.189 1184.63 141.182ZM1187.24 136.614V135.364H1195.97V136.614H1192.31V147H1190.9V136.614H1187.24ZM1198.14 147V135.364H1205.17V136.614H1199.55V140.545H1204.8V141.795H1199.55V145.75H1205.26V147H1198.14ZM1208.39 135.364L1211.39 140.205H1211.48L1214.48 135.364H1216.14L1212.48 141.182L1216.14 147H1214.48L1211.48 142.25H1211.39L1208.39 147H1206.73L1210.48 141.182L1206.73 135.364H1208.39ZM1217.34 136.614V135.364H1226.06V136.614H1222.4V147H1220.99V136.614H1217.34ZM1237.56 140.557V141.807H1232.46V140.557H1237.56ZM1057.82 154.364V166H1056.41V154.364H1057.82ZM1069.87 154.364V166H1068.51L1062.17 156.864H1062.05V166H1060.64V154.364H1062.01L1068.37 163.523H1068.48V154.364H1069.87ZM1072.69 166V154.364H1079.67V155.614H1074.1V159.545H1079.14V160.795H1074.1V166H1072.69ZM1091.9 160.182C1091.9 161.409 1091.68 162.47 1091.23 163.364C1090.79 164.258 1090.18 164.947 1089.41 165.432C1088.64 165.917 1087.76 166.159 1086.76 166.159C1085.77 166.159 1084.89 165.917 1084.12 165.432C1083.34 164.947 1082.73 164.258 1082.29 163.364C1081.85 162.47 1081.63 161.409 1081.63 160.182C1081.63 158.955 1081.85 157.894 1082.29 157C1082.73 156.106 1083.34 155.417 1084.12 154.932C1084.89 154.447 1085.77 154.205 1086.76 154.205C1087.76 154.205 1088.64 154.447 1089.41 154.932C1090.18 155.417 1090.79 156.106 1091.23 157C1091.68 157.894 1091.9 158.955 1091.9 160.182ZM1090.54 160.182C1090.54 159.174 1090.37 158.324 1090.03 157.631C1089.7 156.938 1089.24 156.413 1088.67 156.057C1088.1 155.701 1087.47 155.523 1086.76 155.523C1086.06 155.523 1085.42 155.701 1084.85 156.057C1084.28 156.413 1083.83 156.938 1083.49 157.631C1083.16 158.324 1082.99 159.174 1082.99 160.182C1082.99 161.189 1083.16 162.04 1083.49 162.733C1083.83 163.426 1084.28 163.951 1084.85 164.307C1085.42 164.663 1086.06 164.841 1086.76 164.841C1087.47 164.841 1088.1 164.663 1088.67 164.307C1089.24 163.951 1089.7 163.426 1090.03 162.733C1090.37 162.04 1090.54 161.189 1090.54 160.182ZM1093.15 155.614V154.364H1101.88V155.614H1098.22V166H1096.81V155.614H1093.15ZM1104.05 166V154.364H1111.07V155.614H1105.46V159.545H1110.71V160.795H1105.46V164.75H1111.16V166H1104.05ZM1114.29 154.364L1117.29 159.205H1117.38L1120.38 154.364H1122.04L1118.38 160.182L1122.04 166H1120.38L1117.38 161.25H1117.29L1114.29 166H1112.63L1116.38 160.182L1112.63 154.364H1114.29ZM1123.24 155.614V154.364H1131.97V155.614H1128.31V166H1126.9V155.614H1123.24ZM1143.46 159.557V160.807H1138.37V159.557H1143.46ZM1151.91 154.364V166H1150.5V154.364H1151.91ZM1163.96 154.364V166H1162.6L1156.26 156.864H1156.15V166H1154.74V154.364H1156.1L1162.46 163.523H1162.58V154.364H1163.96ZM1166.78 166V154.364H1173.76V155.614H1168.19V159.545H1173.24V160.795H1168.19V166H1166.78ZM1185.99 160.182C1185.99 161.409 1185.77 162.47 1185.33 163.364C1184.88 164.258 1184.28 164.947 1183.5 165.432C1182.73 165.917 1181.85 166.159 1180.86 166.159C1179.86 166.159 1178.98 165.917 1178.21 165.432C1177.44 164.947 1176.83 164.258 1176.38 163.364C1175.94 162.47 1175.72 161.409 1175.72 160.182C1175.72 158.955 1175.94 157.894 1176.38 157C1176.83 156.106 1177.44 155.417 1178.21 154.932C1178.98 154.447 1179.86 154.205 1180.86 154.205C1181.85 154.205 1182.73 154.447 1183.5 154.932C1184.28 155.417 1184.88 156.106 1185.33 157C1185.77 157.894 1185.99 158.955 1185.99 160.182ZM1184.63 160.182C1184.63 159.174 1184.46 158.324 1184.12 157.631C1183.79 156.938 1183.34 156.413 1182.77 156.057C1182.2 155.701 1181.56 155.523 1180.86 155.523C1180.15 155.523 1179.51 155.701 1178.94 156.057C1178.37 156.413 1177.92 156.938 1177.58 157.631C1177.25 158.324 1177.08 159.174 1177.08 160.182C1177.08 161.189 1177.25 162.04 1177.58 162.733C1177.92 163.426 1178.37 163.951 1178.94 164.307C1179.51 164.663 1180.15 164.841 1180.86 164.841C1181.56 164.841 1182.2 164.663 1182.77 164.307C1183.34 163.951 1183.79 163.426 1184.12 162.733C1184.46 162.04 1184.63 161.189 1184.63 160.182ZM1187.24 155.614V154.364H1195.97V155.614H1192.31V166H1190.9V155.614H1187.24ZM1198.14 166V154.364H1205.17V155.614H1199.55V159.545H1204.8V160.795H1199.55V164.75H1205.26V166H1198.14ZM1208.39 154.364L1211.39 159.205H1211.48L1214.48 154.364H1216.14L1212.48 160.182L1216.14 166H1214.48L1211.48 161.25H1211.39L1208.39 166H1206.73L1210.48 160.182L1206.73 154.364H1208.39ZM1217.34 155.614V154.364H1226.06V155.614H1222.4V166H1220.99V155.614H1217.34ZM1237.56 159.557V160.807H1232.46V159.557H1237.56ZM1057.82 173.364V185H1056.41V173.364H1057.82ZM1069.87 173.364V185H1068.51L1062.17 175.864H1062.05V185H1060.64V173.364H1062.01L1068.37 182.523H1068.48V173.364H1069.87ZM1072.69 185V173.364H1079.67V174.614H1074.1V178.545H1079.14V179.795H1074.1V185H1072.69ZM1091.9 179.182C1091.9 180.409 1091.68 181.47 1091.23 182.364C1090.79 183.258 1090.18 183.947 1089.41 184.432C1088.64 184.917 1087.76 185.159 1086.76 185.159C1085.77 185.159 1084.89 184.917 1084.12 184.432C1083.34 183.947 1082.73 183.258 1082.29 182.364C1081.85 181.47 1081.63 180.409 1081.63 179.182C1081.63 177.955 1081.85 176.894 1082.29 176C1082.73 175.106 1083.34 174.417 1084.12 173.932C1084.89 173.447 1085.77 173.205 1086.76 173.205C1087.76 173.205 1088.64 173.447 1089.41 173.932C1090.18 174.417 1090.79 175.106 1091.23 176C1091.68 176.894 1091.9 177.955 1091.9 179.182ZM1090.54 179.182C1090.54 178.174 1090.37 177.324 1090.03 176.631C1089.7 175.938 1089.24 175.413 1088.67 175.057C1088.1 174.701 1087.47 174.523 1086.76 174.523C1086.06 174.523 1085.42 174.701 1084.85 175.057C1084.28 175.413 1083.83 175.938 1083.49 176.631C1083.16 177.324 1082.99 178.174 1082.99 179.182C1082.99 180.189 1083.16 181.04 1083.49 181.733C1083.83 182.426 1084.28 182.951 1084.85 183.307C1085.42 183.663 1086.06 183.841 1086.76 183.841C1087.47 183.841 1088.1 183.663 1088.67 183.307C1089.24 182.951 1089.7 182.426 1090.03 181.733C1090.37 181.04 1090.54 180.189 1090.54 179.182ZM1093.15 174.614V173.364H1101.88V174.614H1098.22V185H1096.81V174.614H1093.15ZM1104.05 185V173.364H1111.07V174.614H1105.46V178.545H1110.71V179.795H1105.46V183.75H1111.16V185H1104.05ZM1114.29 173.364L1117.29 178.205H1117.38L1120.38 173.364H1122.04L1118.38 179.182L1122.04 185H1120.38L1117.38 180.25H1117.29L1114.29 185H1112.63L1116.38 179.182L1112.63 173.364H1114.29ZM1123.24 174.614V173.364H1131.97V174.614H1128.31V185H1126.9V174.614H1123.24ZM1143.46 178.557V179.807H1138.37V178.557H1143.46ZM1151.91 173.364V185H1150.5V173.364H1151.91ZM1163.96 173.364V185H1162.6L1156.26 175.864H1156.15V185H1154.74V173.364H1156.1L1162.46 182.523H1162.58V173.364H1163.96ZM1166.78 185V173.364H1173.76V174.614H1168.19V178.545H1173.24V179.795H1168.19V185H1166.78ZM1185.99 179.182C1185.99 180.409 1185.77 181.47 1185.33 182.364C1184.88 183.258 1184.28 183.947 1183.5 184.432C1182.73 184.917 1181.85 185.159 1180.86 185.159C1179.86 185.159 1178.98 184.917 1178.21 184.432C1177.44 183.947 1176.83 183.258 1176.38 182.364C1175.94 181.47 1175.72 180.409 1175.72 179.182C1175.72 177.955 1175.94 176.894 1176.38 176C1176.83 175.106 1177.44 174.417 1178.21 173.932C1178.98 173.447 1179.86 173.205 1180.86 173.205C1181.85 173.205 1182.73 173.447 1183.5 173.932C1184.28 174.417 1184.88 175.106 1185.33 176C1185.77 176.894 1185.99 177.955 1185.99 179.182ZM1184.63 179.182C1184.63 178.174 1184.46 177.324 1184.12 176.631C1183.79 175.938 1183.34 175.413 1182.77 175.057C1182.2 174.701 1181.56 174.523 1180.86 174.523C1180.15 174.523 1179.51 174.701 1178.94 175.057C1178.37 175.413 1177.92 175.938 1177.58 176.631C1177.25 177.324 1177.08 178.174 1177.08 179.182C1177.08 180.189 1177.25 181.04 1177.58 181.733C1177.92 182.426 1178.37 182.951 1178.94 183.307C1179.51 183.663 1180.15 183.841 1180.86 183.841C1181.56 183.841 1182.2 183.663 1182.77 183.307C1183.34 182.951 1183.79 182.426 1184.12 181.733C1184.46 181.04 1184.63 180.189 1184.63 179.182ZM1187.24 174.614V173.364H1195.97V174.614H1192.31V185H1190.9V174.614H1187.24ZM1198.14 185V173.364H1205.17V174.614H1199.55V178.545H1204.8V179.795H1199.55V183.75H1205.26V185H1198.14ZM1208.39 173.364L1211.39 178.205H1211.48L1214.48 173.364H1216.14L1212.48 179.182L1216.14 185H1214.48L1211.48 180.25H1211.39L1208.39 185H1206.73L1210.48 179.182L1206.73 173.364H1208.39ZM1217.34 174.614V173.364H1226.06V174.614H1222.4V185H1220.99V174.614H1217.34ZM1237.56 178.557V179.807H1232.46V178.557H1237.56ZM1057.82 192.364V204H1056.41V192.364H1057.82ZM1069.87 192.364V204H1068.51L1062.17 194.864H1062.05V204H1060.64V192.364H1062.01L1068.37 201.523H1068.48V192.364H1069.87ZM1072.69 204V192.364H1079.67V193.614H1074.1V197.545H1079.14V198.795H1074.1V204H1072.69ZM1091.9 198.182C1091.9 199.409 1091.68 200.47 1091.23 201.364C1090.79 202.258 1090.18 202.947 1089.41 203.432C1088.64 203.917 1087.76 204.159 1086.76 204.159C1085.77 204.159 1084.89 203.917 1084.12 203.432C1083.34 202.947 1082.73 202.258 1082.29 201.364C1081.85 200.47 1081.63 199.409 1081.63 198.182C1081.63 196.955 1081.85 195.894 1082.29 195C1082.73 194.106 1083.34 193.417 1084.12 192.932C1084.89 192.447 1085.77 192.205 1086.76 192.205C1087.76 192.205 1088.64 192.447 1089.41 192.932C1090.18 193.417 1090.79 194.106 1091.23 195C1091.68 195.894 1091.9 196.955 1091.9 198.182ZM1090.54 198.182C1090.54 197.174 1090.37 196.324 1090.03 195.631C1089.7 194.938 1089.24 194.413 1088.67 194.057C1088.1 193.701 1087.47 193.523 1086.76 193.523C1086.06 193.523 1085.42 193.701 1084.85 194.057C1084.28 194.413 1083.83 194.938 1083.49 195.631C1083.16 196.324 1082.99 197.174 1082.99 198.182C1082.99 199.189 1083.16 200.04 1083.49 200.733C1083.83 201.426 1084.28 201.951 1084.85 202.307C1085.42 202.663 1086.06 202.841 1086.76 202.841C1087.47 202.841 1088.1 202.663 1088.67 202.307C1089.24 201.951 1089.7 201.426 1090.03 200.733C1090.37 200.04 1090.54 199.189 1090.54 198.182ZM1093.15 193.614V192.364H1101.88V193.614H1098.22V204H1096.81V193.614H1093.15ZM1104.05 204V192.364H1111.07V193.614H1105.46V197.545H1110.71V198.795H1105.46V202.75H1111.16V204H1104.05ZM1114.29 192.364L1117.29 197.205H1117.38L1120.38 192.364H1122.04L1118.38 198.182L1122.04 204H1120.38L1117.38 199.25H1117.29L1114.29 204H1112.63L1116.38 198.182L1112.63 192.364H1114.29ZM1123.24 193.614V192.364H1131.97V193.614H1128.31V204H1126.9V193.614H1123.24ZM1143.46 197.557V198.807H1138.37V197.557H1143.46ZM1151.91 192.364V204H1150.5V192.364H1151.91ZM1163.96 192.364V204H1162.6L1156.26 194.864H1156.15V204H1154.74V192.364H1156.1L1162.46 201.523H1162.58V192.364H1163.96ZM1166.78 204V192.364H1173.76V193.614H1168.19V197.545H1173.24V198.795H1168.19V204H1166.78ZM1185.99 198.182C1185.99 199.409 1185.77 200.47 1185.33 201.364C1184.88 202.258 1184.28 202.947 1183.5 203.432C1182.73 203.917 1181.85 204.159 1180.86 204.159C1179.86 204.159 1178.98 203.917 1178.21 203.432C1177.44 202.947 1176.83 202.258 1176.38 201.364C1175.94 200.47 1175.72 199.409 1175.72 198.182C1175.72 196.955 1175.94 195.894 1176.38 195C1176.83 194.106 1177.44 193.417 1178.21 192.932C1178.98 192.447 1179.86 192.205 1180.86 192.205C1181.85 192.205 1182.73 192.447 1183.5 192.932C1184.28 193.417 1184.88 194.106 1185.33 195C1185.77 195.894 1185.99 196.955 1185.99 198.182ZM1184.63 198.182C1184.63 197.174 1184.46 196.324 1184.12 195.631C1183.79 194.938 1183.34 194.413 1182.77 194.057C1182.2 193.701 1181.56 193.523 1180.86 193.523C1180.15 193.523 1179.51 193.701 1178.94 194.057C1178.37 194.413 1177.92 194.938 1177.58 195.631C1177.25 196.324 1177.08 197.174 1177.08 198.182C1177.08 199.189 1177.25 200.04 1177.58 200.733C1177.92 201.426 1178.37 201.951 1178.94 202.307C1179.51 202.663 1180.15 202.841 1180.86 202.841C1181.56 202.841 1182.2 202.663 1182.77 202.307C1183.34 201.951 1183.79 201.426 1184.12 200.733C1184.46 200.04 1184.63 199.189 1184.63 198.182ZM1187.24 193.614V192.364H1195.97V193.614H1192.31V204H1190.9V193.614H1187.24ZM1198.14 204V192.364H1205.17V193.614H1199.55V197.545H1204.8V198.795H1199.55V202.75H1205.26V204H1198.14ZM1208.39 192.364L1211.39 197.205H1211.48L1214.48 192.364H1216.14L1212.48 198.182L1216.14 204H1214.48L1211.48 199.25H1211.39L1208.39 204H1206.73L1210.48 198.182L1206.73 192.364H1208.39ZM1217.34 193.614V192.364H1226.06V193.614H1222.4V204H1220.99V193.614H1217.34ZM1237.56 197.557V198.807H1232.46V197.557H1237.56ZM1057.82 211.364V223H1056.41V211.364H1057.82ZM1069.87 211.364V223H1068.51L1062.17 213.864H1062.05V223H1060.64V211.364H1062.01L1068.37 220.523H1068.48V211.364H1069.87ZM1072.69 223V211.364H1079.67V212.614H1074.1V216.545H1079.14V217.795H1074.1V223H1072.69ZM1091.9 217.182C1091.9 218.409 1091.68 219.47 1091.23 220.364C1090.79 221.258 1090.18 221.947 1089.41 222.432C1088.64 222.917 1087.76 223.159 1086.76 223.159C1085.77 223.159 1084.89 222.917 1084.12 222.432C1083.34 221.947 1082.73 221.258 1082.29 220.364C1081.85 219.47 1081.63 218.409 1081.63 217.182C1081.63 215.955 1081.85 214.894 1082.29 214C1082.73 213.106 1083.34 212.417 1084.12 211.932C1084.89 211.447 1085.77 211.205 1086.76 211.205C1087.76 211.205 1088.64 211.447 1089.41 211.932C1090.18 212.417 1090.79 213.106 1091.23 214C1091.68 214.894 1091.9 215.955 1091.9 217.182ZM1090.54 217.182C1090.54 216.174 1090.37 215.324 1090.03 214.631C1089.7 213.938 1089.24 213.413 1088.67 213.057C1088.1 212.701 1087.47 212.523 1086.76 212.523C1086.06 212.523 1085.42 212.701 1084.85 213.057C1084.28 213.413 1083.83 213.938 1083.49 214.631C1083.16 215.324 1082.99 216.174 1082.99 217.182C1082.99 218.189 1083.16 219.04 1083.49 219.733C1083.83 220.426 1084.28 220.951 1084.85 221.307C1085.42 221.663 1086.06 221.841 1086.76 221.841C1087.47 221.841 1088.1 221.663 1088.67 221.307C1089.24 220.951 1089.7 220.426 1090.03 219.733C1090.37 219.04 1090.54 218.189 1090.54 217.182ZM1093.15 212.614V211.364H1101.88V212.614H1098.22V223H1096.81V212.614H1093.15ZM1104.05 223V211.364H1111.07V212.614H1105.46V216.545H1110.71V217.795H1105.46V221.75H1111.16V223H1104.05ZM1114.29 211.364L1117.29 216.205H1117.38L1120.38 211.364H1122.04L1118.38 217.182L1122.04 223H1120.38L1117.38 218.25H1117.29L1114.29 223H1112.63L1116.38 217.182L1112.63 211.364H1114.29ZM1123.24 212.614V211.364H1131.97V212.614H1128.31V223H1126.9V212.614H1123.24ZM1143.46 216.557V217.807H1138.37V216.557H1143.46ZM1151.91 211.364V223H1150.5V211.364H1151.91ZM1163.96 211.364V223H1162.6L1156.26 213.864H1156.15V223H1154.74V211.364H1156.1L1162.46 220.523H1162.58V211.364H1163.96ZM1166.78 223V211.364H1173.76V212.614H1168.19V216.545H1173.24V217.795H1168.19V223H1166.78ZM1185.99 217.182C1185.99 218.409 1185.77 219.47 1185.33 220.364C1184.88 221.258 1184.28 221.947 1183.5 222.432C1182.73 222.917 1181.85 223.159 1180.86 223.159C1179.86 223.159 1178.98 222.917 1178.21 222.432C1177.44 221.947 1176.83 221.258 1176.38 220.364C1175.94 219.47 1175.72 218.409 1175.72 217.182C1175.72 215.955 1175.94 214.894 1176.38 214C1176.83 213.106 1177.44 212.417 1178.21 211.932C1178.98 211.447 1179.86 211.205 1180.86 211.205C1181.85 211.205 1182.73 211.447 1183.5 211.932C1184.28 212.417 1184.88 213.106 1185.33 214C1185.77 214.894 1185.99 215.955 1185.99 217.182ZM1184.63 217.182C1184.63 216.174 1184.46 215.324 1184.12 214.631C1183.79 213.938 1183.34 213.413 1182.77 213.057C1182.2 212.701 1181.56 212.523 1180.86 212.523C1180.15 212.523 1179.51 212.701 1178.94 213.057C1178.37 213.413 1177.92 213.938 1177.58 214.631C1177.25 215.324 1177.08 216.174 1177.08 217.182C1177.08 218.189 1177.25 219.04 1177.58 219.733C1177.92 220.426 1178.37 220.951 1178.94 221.307C1179.51 221.663 1180.15 221.841 1180.86 221.841C1181.56 221.841 1182.2 221.663 1182.77 221.307C1183.34 220.951 1183.79 220.426 1184.12 219.733C1184.46 219.04 1184.63 218.189 1184.63 217.182ZM1187.24 212.614V211.364H1195.97V212.614H1192.31V223H1190.9V212.614H1187.24ZM1198.14 223V211.364H1205.17V212.614H1199.55V216.545H1204.8V217.795H1199.55V221.75H1205.26V223H1198.14ZM1208.39 211.364L1211.39 216.205H1211.48L1214.48 211.364H1216.14L1212.48 217.182L1216.14 223H1214.48L1211.48 218.25H1211.39L1208.39 223H1206.73L1210.48 217.182L1206.73 211.364H1208.39ZM1217.34 212.614V211.364H1226.06V212.614H1222.4V223H1220.99V212.614H1217.34ZM1237.56 216.557V217.807H1232.46V216.557H1237.56ZM1057.82 230.364V242H1056.41V230.364H1057.82ZM1069.87 230.364V242H1068.51L1062.17 232.864H1062.05V242H1060.64V230.364H1062.01L1068.37 239.523H1068.48V230.364H1069.87ZM1072.69 242V230.364H1079.67V231.614H1074.1V235.545H1079.14V236.795H1074.1V242H1072.69ZM1091.9 236.182C1091.9 237.409 1091.68 238.47 1091.23 239.364C1090.79 240.258 1090.18 240.947 1089.41 241.432C1088.64 241.917 1087.76 242.159 1086.76 242.159C1085.77 242.159 1084.89 241.917 1084.12 241.432C1083.34 240.947 1082.73 240.258 1082.29 239.364C1081.85 238.47 1081.63 237.409 1081.63 236.182C1081.63 234.955 1081.85 233.894 1082.29 233C1082.73 232.106 1083.34 231.417 1084.12 230.932C1084.89 230.447 1085.77 230.205 1086.76 230.205C1087.76 230.205 1088.64 230.447 1089.41 230.932C1090.18 231.417 1090.79 232.106 1091.23 233C1091.68 233.894 1091.9 234.955 1091.9 236.182ZM1090.54 236.182C1090.54 235.174 1090.37 234.324 1090.03 233.631C1089.7 232.938 1089.24 232.413 1088.67 232.057C1088.1 231.701 1087.47 231.523 1086.76 231.523C1086.06 231.523 1085.42 231.701 1084.85 232.057C1084.28 232.413 1083.83 232.938 1083.49 233.631C1083.16 234.324 1082.99 235.174 1082.99 236.182C1082.99 237.189 1083.16 238.04 1083.49 238.733C1083.83 239.426 1084.28 239.951 1084.85 240.307C1085.42 240.663 1086.06 240.841 1086.76 240.841C1087.47 240.841 1088.1 240.663 1088.67 240.307C1089.24 239.951 1089.7 239.426 1090.03 238.733C1090.37 238.04 1090.54 237.189 1090.54 236.182ZM1093.15 231.614V230.364H1101.88V231.614H1098.22V242H1096.81V231.614H1093.15ZM1104.05 242V230.364H1111.07V231.614H1105.46V235.545H1110.71V236.795H1105.46V240.75H1111.16V242H1104.05ZM1114.29 230.364L1117.29 235.205H1117.38L1120.38 230.364H1122.04L1118.38 236.182L1122.04 242H1120.38L1117.38 237.25H1117.29L1114.29 242H1112.63L1116.38 236.182L1112.63 230.364H1114.29ZM1123.24 231.614V230.364H1131.97V231.614H1128.31V242H1126.9V231.614H1123.24ZM1143.46 235.557V236.807H1138.37V235.557H1143.46ZM1151.91 230.364V242H1150.5V230.364H1151.91ZM1163.96 230.364V242H1162.6L1156.26 232.864H1156.15V242H1154.74V230.364H1156.1L1162.46 239.523H1162.58V230.364H1163.96ZM1166.78 242V230.364H1173.76V231.614H1168.19V235.545H1173.24V236.795H1168.19V242H1166.78ZM1185.99 236.182C1185.99 237.409 1185.77 238.47 1185.33 239.364C1184.88 240.258 1184.28 240.947 1183.5 241.432C1182.73 241.917 1181.85 242.159 1180.86 242.159C1179.86 242.159 1178.98 241.917 1178.21 241.432C1177.44 240.947 1176.83 240.258 1176.38 239.364C1175.94 238.47 1175.72 237.409 1175.72 236.182C1175.72 234.955 1175.94 233.894 1176.38 233C1176.83 232.106 1177.44 231.417 1178.21 230.932C1178.98 230.447 1179.86 230.205 1180.86 230.205C1181.85 230.205 1182.73 230.447 1183.5 230.932C1184.28 231.417 1184.88 232.106 1185.33 233C1185.77 233.894 1185.99 234.955 1185.99 236.182ZM1184.63 236.182C1184.63 235.174 1184.46 234.324 1184.12 233.631C1183.79 232.938 1183.34 232.413 1182.77 232.057C1182.2 231.701 1181.56 231.523 1180.86 231.523C1180.15 231.523 1179.51 231.701 1178.94 232.057C1178.37 232.413 1177.92 232.938 1177.58 233.631C1177.25 234.324 1177.08 235.174 1177.08 236.182C1177.08 237.189 1177.25 238.04 1177.58 238.733C1177.92 239.426 1178.37 239.951 1178.94 240.307C1179.51 240.663 1180.15 240.841 1180.86 240.841C1181.56 240.841 1182.2 240.663 1182.77 240.307C1183.34 239.951 1183.79 239.426 1184.12 238.733C1184.46 238.04 1184.63 237.189 1184.63 236.182ZM1187.24 231.614V230.364H1195.97V231.614H1192.31V242H1190.9V231.614H1187.24ZM1198.14 242V230.364H1205.17V231.614H1199.55V235.545H1204.8V236.795H1199.55V240.75H1205.26V242H1198.14ZM1208.39 230.364L1211.39 235.205H1211.48L1214.48 230.364H1216.14L1212.48 236.182L1216.14 242H1214.48L1211.48 237.25H1211.39L1208.39 242H1206.73L1210.48 236.182L1206.73 230.364H1208.39ZM1217.34 231.614V230.364H1226.06V231.614H1222.4V242H1220.99V231.614H1217.34ZM1237.56 235.557V236.807H1232.46V235.557H1237.56ZM1057.82 249.364V261H1056.41V249.364H1057.82ZM1069.87 249.364V261H1068.51L1062.17 251.864H1062.05V261H1060.64V249.364H1062.01L1068.37 258.523H1068.48V249.364H1069.87ZM1072.69 261V249.364H1079.67V250.614H1074.1V254.545H1079.14V255.795H1074.1V261H1072.69ZM1091.9 255.182C1091.9 256.409 1091.68 257.47 1091.23 258.364C1090.79 259.258 1090.18 259.947 1089.41 260.432C1088.64 260.917 1087.76 261.159 1086.76 261.159C1085.77 261.159 1084.89 260.917 1084.12 260.432C1083.34 259.947 1082.73 259.258 1082.29 258.364C1081.85 257.47 1081.63 256.409 1081.63 255.182C1081.63 253.955 1081.85 252.894 1082.29 252C1082.73 251.106 1083.34 250.417 1084.12 249.932C1084.89 249.447 1085.77 249.205 1086.76 249.205C1087.76 249.205 1088.64 249.447 1089.41 249.932C1090.18 250.417 1090.79 251.106 1091.23 252C1091.68 252.894 1091.9 253.955 1091.9 255.182ZM1090.54 255.182C1090.54 254.174 1090.37 253.324 1090.03 252.631C1089.7 251.938 1089.24 251.413 1088.67 251.057C1088.1 250.701 1087.47 250.523 1086.76 250.523C1086.06 250.523 1085.42 250.701 1084.85 251.057C1084.28 251.413 1083.83 251.938 1083.49 252.631C1083.16 253.324 1082.99 254.174 1082.99 255.182C1082.99 256.189 1083.16 257.04 1083.49 257.733C1083.83 258.426 1084.28 258.951 1084.85 259.307C1085.42 259.663 1086.06 259.841 1086.76 259.841C1087.47 259.841 1088.1 259.663 1088.67 259.307C1089.24 258.951 1089.7 258.426 1090.03 257.733C1090.37 257.04 1090.54 256.189 1090.54 255.182ZM1093.15 250.614V249.364H1101.88V250.614H1098.22V261H1096.81V250.614H1093.15ZM1104.05 261V249.364H1111.07V250.614H1105.46V254.545H1110.71V255.795H1105.46V259.75H1111.16V261H1104.05ZM1114.29 249.364L1117.29 254.205H1117.38L1120.38 249.364H1122.04L1118.38 255.182L1122.04 261H1120.38L1117.38 256.25H1117.29L1114.29 261H1112.63L1116.38 255.182L1112.63 249.364H1114.29ZM1123.24 250.614V249.364H1131.97V250.614H1128.31V261H1126.9V250.614H1123.24ZM1143.46 254.557V255.807H1138.37V254.557H1143.46ZM1151.91 249.364V261H1150.5V249.364H1151.91ZM1163.96 249.364V261H1162.6L1156.26 251.864H1156.15V261H1154.74V249.364H1156.1L1162.46 258.523H1162.58V249.364H1163.96ZM1166.78 261V249.364H1173.76V250.614H1168.19V254.545H1173.24V255.795H1168.19V261H1166.78ZM1185.99 255.182C1185.99 256.409 1185.77 257.47 1185.33 258.364C1184.88 259.258 1184.28 259.947 1183.5 260.432C1182.73 260.917 1181.85 261.159 1180.86 261.159C1179.86 261.159 1178.98 260.917 1178.21 260.432C1177.44 259.947 1176.83 259.258 1176.38 258.364C1175.94 257.47 1175.72 256.409 1175.72 255.182C1175.72 253.955 1175.94 252.894 1176.38 252C1176.83 251.106 1177.44 250.417 1178.21 249.932C1178.98 249.447 1179.86 249.205 1180.86 249.205C1181.85 249.205 1182.73 249.447 1183.5 249.932C1184.28 250.417 1184.88 251.106 1185.33 252C1185.77 252.894 1185.99 253.955 1185.99 255.182ZM1184.63 255.182C1184.63 254.174 1184.46 253.324 1184.12 252.631C1183.79 251.938 1183.34 251.413 1182.77 251.057C1182.2 250.701 1181.56 250.523 1180.86 250.523C1180.15 250.523 1179.51 250.701 1178.94 251.057C1178.37 251.413 1177.92 251.938 1177.58 252.631C1177.25 253.324 1177.08 254.174 1177.08 255.182C1177.08 256.189 1177.25 257.04 1177.58 257.733C1177.92 258.426 1178.37 258.951 1178.94 259.307C1179.51 259.663 1180.15 259.841 1180.86 259.841C1181.56 259.841 1182.2 259.663 1182.77 259.307C1183.34 258.951 1183.79 258.426 1184.12 257.733C1184.46 257.04 1184.63 256.189 1184.63 255.182ZM1187.24 250.614V249.364H1195.97V250.614H1192.31V261H1190.9V250.614H1187.24ZM1198.14 261V249.364H1205.17V250.614H1199.55V254.545H1204.8V255.795H1199.55V259.75H1205.26V261H1198.14ZM1208.39 249.364L1211.39 254.205H1211.48L1214.48 249.364H1216.14L1212.48 255.182L1216.14 261H1214.48L1211.48 256.25H1211.39L1208.39 261H1206.73L1210.48 255.182L1206.73 249.364H1208.39ZM1217.34 250.614V249.364H1226.06V250.614H1222.4V261H1220.99V250.614H1217.34ZM1237.56 254.557V255.807H1232.46V254.557H1237.56ZM1057.82 268.364V280H1056.41V268.364H1057.82ZM1069.87 268.364V280H1068.51L1062.17 270.864H1062.05V280H1060.64V268.364H1062.01L1068.37 277.523H1068.48V268.364H1069.87ZM1072.69 280V268.364H1079.67V269.614H1074.1V273.545H1079.14V274.795H1074.1V280H1072.69ZM1091.9 274.182C1091.9 275.409 1091.68 276.47 1091.23 277.364C1090.79 278.258 1090.18 278.947 1089.41 279.432C1088.64 279.917 1087.76 280.159 1086.76 280.159C1085.77 280.159 1084.89 279.917 1084.12 279.432C1083.34 278.947 1082.73 278.258 1082.29 277.364C1081.85 276.47 1081.63 275.409 1081.63 274.182C1081.63 272.955 1081.85 271.894 1082.29 271C1082.73 270.106 1083.34 269.417 1084.12 268.932C1084.89 268.447 1085.77 268.205 1086.76 268.205C1087.76 268.205 1088.64 268.447 1089.41 268.932C1090.18 269.417 1090.79 270.106 1091.23 271C1091.68 271.894 1091.9 272.955 1091.9 274.182ZM1090.54 274.182C1090.54 273.174 1090.37 272.324 1090.03 271.631C1089.7 270.938 1089.24 270.413 1088.67 270.057C1088.1 269.701 1087.47 269.523 1086.76 269.523C1086.06 269.523 1085.42 269.701 1084.85 270.057C1084.28 270.413 1083.83 270.938 1083.49 271.631C1083.16 272.324 1082.99 273.174 1082.99 274.182C1082.99 275.189 1083.16 276.04 1083.49 276.733C1083.83 277.426 1084.28 277.951 1084.85 278.307C1085.42 278.663 1086.06 278.841 1086.76 278.841C1087.47 278.841 1088.1 278.663 1088.67 278.307C1089.24 277.951 1089.7 277.426 1090.03 276.733C1090.37 276.04 1090.54 275.189 1090.54 274.182ZM1093.15 269.614V268.364H1101.88V269.614H1098.22V280H1096.81V269.614H1093.15ZM1104.05 280V268.364H1111.07V269.614H1105.46V273.545H1110.71V274.795H1105.46V278.75H1111.16V280H1104.05ZM1114.29 268.364L1117.29 273.205H1117.38L1120.38 268.364H1122.04L1118.38 274.182L1122.04 280H1120.38L1117.38 275.25H1117.29L1114.29 280H1112.63L1116.38 274.182L1112.63 268.364H1114.29ZM1123.24 269.614V268.364H1131.97V269.614H1128.31V280H1126.9V269.614H1123.24ZM1143.46 273.557V274.807H1138.37V273.557H1143.46ZM1151.91 268.364V280H1150.5V268.364H1151.91ZM1163.96 268.364V280H1162.6L1156.26 270.864H1156.15V280H1154.74V268.364H1156.1L1162.46 277.523H1162.58V268.364H1163.96ZM1166.78 280V268.364H1173.76V269.614H1168.19V273.545H1173.24V274.795H1168.19V280H1166.78ZM1185.99 274.182C1185.99 275.409 1185.77 276.47 1185.33 277.364C1184.88 278.258 1184.28 278.947 1183.5 279.432C1182.73 279.917 1181.85 280.159 1180.86 280.159C1179.86 280.159 1178.98 279.917 1178.21 279.432C1177.44 278.947 1176.83 278.258 1176.38 277.364C1175.94 276.47 1175.72 275.409 1175.72 274.182C1175.72 272.955 1175.94 271.894 1176.38 271C1176.83 270.106 1177.44 269.417 1178.21 268.932C1178.98 268.447 1179.86 268.205 1180.86 268.205C1181.85 268.205 1182.73 268.447 1183.5 268.932C1184.28 269.417 1184.88 270.106 1185.33 271C1185.77 271.894 1185.99 272.955 1185.99 274.182ZM1184.63 274.182C1184.63 273.174 1184.46 272.324 1184.12 271.631C1183.79 270.938 1183.34 270.413 1182.77 270.057C1182.2 269.701 1181.56 269.523 1180.86 269.523C1180.15 269.523 1179.51 269.701 1178.94 270.057C1178.37 270.413 1177.92 270.938 1177.58 271.631C1177.25 272.324 1177.08 273.174 1177.08 274.182C1177.08 275.189 1177.25 276.04 1177.58 276.733C1177.92 277.426 1178.37 277.951 1178.94 278.307C1179.51 278.663 1180.15 278.841 1180.86 278.841C1181.56 278.841 1182.2 278.663 1182.77 278.307C1183.34 277.951 1183.79 277.426 1184.12 276.733C1184.46 276.04 1184.63 275.189 1184.63 274.182ZM1187.24 269.614V268.364H1195.97V269.614H1192.31V280H1190.9V269.614H1187.24ZM1198.14 280V268.364H1205.17V269.614H1199.55V273.545H1204.8V274.795H1199.55V278.75H1205.26V280H1198.14ZM1208.39 268.364L1211.39 273.205H1211.48L1214.48 268.364H1216.14L1212.48 274.182L1216.14 280H1214.48L1211.48 275.25H1211.39L1208.39 280H1206.73L1210.48 274.182L1206.73 268.364H1208.39ZM1217.34 269.614V268.364H1226.06V269.614H1222.4V280H1220.99V269.614H1217.34ZM1237.56 273.557V274.807H1232.46V273.557H1237.56Z" fill="black"/>
</g>
<defs>
<filter id="filter0_i_0_1" x="1022" y="380" width="172" height="177" filterUnits="userSpaceOnUse" color-interpolation-filters="sRGB">
<feFlood flood-opacity="0" result="BackgroundImageFix"/>
<feBlend mode="normal" in="SourceGraphic" in2="BackgroundImageFix" result="shape"/>
<feColorMatrix in="SourceAlpha" type="matrix" values="0 0 0 0 0 0 0 0 0 0 0 0 0 0 0 0 0 0 127 0" result="hardAlpha"/>
<feOffset dy="4"/>
<feGaussianBlur stdDeviation="2"/>
<feComposite in2="hardAlpha" operator="arithmetic" k2="-1" k3="1"/>
<feColorMatrix type="matrix" values="0 0 0 0 0 0 0 0 0 0 0 0 0 0 0 0 0 0 0.25 0"/>
<feBlend mode="normal" in2="shape" result="effect1_innerShadow_0_1"/>
</filter>
<filter id="filter1_i_0_1" x="1022" y="570" width="172" height="177" filterUnits="userSpaceOnUse" color-interpolation-filters="sRGB">
<feFlood flood-opacity="0" result="BackgroundImageFix"/>
<feBlend mode="normal" in="SourceGraphic" in2="BackgroundImageFix" result="shape"/>
<feColorMatrix in="SourceAlpha" type="matrix" values="0 0 0 0 0 0 0 0 0 0 0 0 0 0 0 0 0 0 127 0" result="hardAlpha"/>
<feOffset dy="4"/>
<feGaussianBlur stdDeviation="2"/>
<feComposite in2="hardAlpha" operator="arithmetic" k2="-1" k3="1"/>
<feColorMatrix type="matrix" values="0 0 0 0 0 0 0 0 0 0 0 0 0 0 0 0 0 0 0.25 0"/>
<feBlend mode="normal" in2="shape" result="effect1_innerShadow_0_1"/>
</filter>
<filter id="filter2_i_0_1" x="1212" y="380" width="173" height="177" filterUnits="userSpaceOnUse" color-interpolation-filters="sRGB">
<feFlood flood-opacity="0" result="BackgroundImageFix"/>
<feBlend mode="normal" in="SourceGraphic" in2="BackgroundImageFix" result="shape"/>
<feColorMatrix in="SourceAlpha" type="matrix" values="0 0 0 0 0 0 0 0 0 0 0 0 0 0 0 0 0 0 127 0" result="hardAlpha"/>
<feOffset dy="4"/>
<feGaussianBlur stdDeviation="2"/>
<feComposite in2="hardAlpha" operator="arithmetic" k2="-1" k3="1"/>
<feColorMatrix type="matrix" values="0 0 0 0 0 0 0 0 0 0 0 0 0 0 0 0 0 0 0.25 0"/>
<feBlend mode="normal" in2="shape" result="effect1_innerShadow_0_1"/>
</filter>
<filter id="filter3_i_0_1" x="1212" y="570" width="173" height="177" filterUnits="userSpaceOnUse" color-interpolation-filters="sRGB">
<feFlood flood-opacity="0" result="BackgroundImageFix"/>
<feBlend mode="normal" in="SourceGraphic" in2="BackgroundImageFix" result="shape"/>
<feColorMatrix in="SourceAlpha" type="matrix" values="0 0 0 0 0 0 0 0 0 0 0 0 0 0 0 0 0 0 127 0" result="hardAlpha"/>
<feOffset dy="4"/>
<feGaussianBlur stdDeviation="2"/>
<feComposite in2="hardAlpha" operator="arithmetic" k2="-1" k3="1"/>
<feColorMatrix type="matrix" values="0 0 0 0 0 0 0 0 0 0 0 0 0 0 0 0 0 0 0.25 0"/>
<feBlend mode="normal" in2="shape" result="effect1_innerShadow_0_1"/>
</filter>
<clipPath id="clip0_0_1">
<rect width="1280" height="800" fill="white"/>
</clipPath>
</defs>
</svg>
